<svg viewBox="0 0 24 24" xmlns="http://www.w3.org/2000/svg">
    <!--<path d="M8.66 13h8.68c.364 0 .66-.284.66-.635v-.73a.648.648 0 0 0-.66-.635H8.66a.647.647 0 0 0-.66.635v.73c0 .351.295.635.66.635m-2 4h8.68c.364 0 .66-.284.66-.635v-.73a.648.648 0 0 0-.66-.635H6.66a.647.647 0 0 0-.66.635v.73c0 .351.295.635.66.635m0-8h8.68c.364 0 .66-.284.66-.635v-.73A.648.648 0 0 0 15.34 7H6.66a.647.647 0 0 0-.66.635v.73c0 .351.295.635.66.635M12 0C5.372 0 0 5.373 0 12s5.372 12 12 12c6.627 0 12-5.373 12-12S18.627 0 12 0m0 22C6.477 22 2 17.523 2 12S6.477 2 12 2s10 4.477 10 10-4.477 10-10 10" fill="#CCC" fill-rule="evenodd"/>-->
    <path d="M8.6602,13 L17.3402,13 C17.7042,13 18.0002,12.716 18.0002,12.365 L18.0002,11.635 C18.0002,11.284 17.7042,11 17.3402,11 L8.6602,11 C8.2952,11 8.0002,11.284 8.0002,11.635 L8.0002,12.365 C8.0002,12.716 8.2952,13 8.6602,13 M6.6602,17 L15.3402,17 C15.7042,17 16.0002,16.716 16.0002,16.365 L16.0002,15.635 C16.0002,15.284 15.7042,15 15.3402,15 L6.6602,15 C6.2952,15 6.0002,15.284 6.0002,15.635 L6.0002,16.365 C6.0002,16.716 6.2952,17 6.6602,17 M6.6602,9 L15.3402,9 C15.7042,9 16.0002,8.716 16.0002,8.365 L16.0002,7.635 C16.0002,7.284 15.7042,7 15.3402,7 L6.6602,7 C6.2952,7 6.0002,7.284 6.0002,7.635 L6.0002,8.365 C6.0002,8.716 6.2952,9 6.6602,9" id="Fill-1" fill="#51A33D"></path>
    <path d="M12,0 C18.627,0 24,5.373 24,12 C24,18.627 18.627,24 12,24 C5.372,24 0,18.627 0,12 C0,5.373 5.372,0 12,0 Z M12,22 C17.523,22 22,17.523 22,12 C22,6.477 17.523,2 12,2 C6.477,2 2,6.477 2,12 C2,17.523 6.477,22 12,22 Z" id="Combined-Shape" fill="#C9F9BA"></path>
</svg>
