<?xml version="1.0" encoding="UTF-8"?>
<svg width="130px" height="24px" viewBox="0 0 130 24" version="1.1" xmlns="http://www.w3.org/2000/svg" xmlns:xlink="http://www.w3.org/1999/xlink">
    <!-- Generator: sketchtool 55.2 (78181) - https://sketchapp.com -->
    <title>23057476-8AA0-4366-9096-4ADC219D9104</title>
    <desc>Created with sketchtool.</desc>
    <g id="Page-1" stroke="none" stroke-width="1" fill="none" fill-rule="evenodd">
        <g id="Expired-Enterprise-Trial-Dialog" transform="translate(-853.000000, -315.000000)" fill="#757575">
            <g id="Modal" transform="translate(292.000000, 255.000000)">
                <g id="Testimonial" transform="translate(500.000000, 0.000000)">
                    <g id="WIW-Logo" transform="translate(61.000000, 60.000000)">
                        <g id="Wordmark" transform="translate(29.354839, 5.400000)">
                            <path d="M14.1431445,12.1489032 C14.1052673,12.300129 14.053476,12.4214194 13.9872553,12.5122581 C13.9212923,12.6036129 13.8220901,12.6727742 13.690164,12.7202581 C13.5579803,12.7672258 13.3879193,12.7987097 13.1804965,12.8144516 C12.972816,12.8301935 12.7084485,12.8381935 12.3873941,12.8381935 C12.0287201,12.8381935 11.7409048,12.8301935 11.5236906,12.8144516 C11.3067341,12.7987097 11.1351271,12.7672258 11.0093851,12.7202581 C10.8833854,12.6727742 10.7924285,12.6036129 10.7354839,12.5122581 C10.6790546,12.4214194 10.6349933,12.300129 10.6035578,12.1489032 L8.64966057,4.40619355 L8.6308508,4.40619355 L6.78079382,12.1489032 C6.74910064,12.2936774 6.70529706,12.4116129 6.64835241,12.5027097 C6.5919231,12.5940645 6.5022546,12.6650323 6.37960458,12.7150968 C6.25669689,12.7659355 6.0902433,12.7987097 5.87921312,12.8144516 C5.66844061,12.8301935 5.38990139,12.8381935 5.04385313,12.8381935 C4.67899509,12.8381935 4.38808781,12.8301935 4.17087359,12.8144516 C3.95365938,12.7987097 3.78231009,12.7672258 3.65631039,12.7202581 C3.53031069,12.6727742 3.43935385,12.6036129 3.38266686,12.5122581 C3.32623755,12.4214194 3.27882662,12.300129 3.24094941,12.1489032 L0.465863931,1.48851613 C0.409434617,1.26193548 0.37774144,1.08412903 0.371557405,0.955096774 C0.365373371,0.826322581 0.401446906,0.727225806 0.480293345,0.657806452 C0.558882117,0.588645161 0.687973837,0.545806452 0.867310837,0.530322581 C1.04639017,0.514580645 1.29684357,0.50683871 1.61764035,0.50683871 C1.91344334,0.50683871 2.14766364,0.511483871 2.32081661,0.520774194 C2.49396958,0.530322581 2.62409197,0.552516129 2.71247213,0.587096774 C2.80059462,0.621419355 2.86011595,0.671741935 2.89180913,0.738064516 C2.92324464,0.804129032 2.94849611,0.897032258 2.96730588,1.01651613 L5.11007383,10.3736774 L5.11934988,10.3736774 L7.34689064,1.08283871 C7.37214211,0.963096774 7.40512363,0.865290323 7.44609286,0.789935484 C7.48706209,0.714322581 7.55611714,0.656258065 7.65377335,0.615225806 C7.75142956,0.574193548 7.88490164,0.545806452 8.05496259,0.530322581 C8.22476587,0.514580645 8.4515138,0.50683871 8.73469105,0.50683871 C9.03667806,0.50683871 9.27734007,0.513032258 9.4564194,0.525419355 C9.63601407,0.538322581 9.77412418,0.564903226 9.87203806,0.605677419 C9.96969427,0.646967742 10.0402953,0.705032258 10.0843566,0.780645161 C10.1281602,0.856 10.1629453,0.956903226 10.1881968,1.08283871 L12.4912343,10.3736774 L12.5103018,10.3736774 L14.6528121,1.04490323 C14.6716218,0.944516129 14.6966156,0.857548387 14.7283088,0.785032258 C14.7597443,0.713032258 14.8192656,0.656258065 14.9076458,0.615225806 C14.9957683,0.574193548 15.1215103,0.545806452 15.2853872,0.530322581 C15.4487488,0.514580645 15.6783311,0.50683871 15.9741341,0.50683871 C16.2511273,0.50683871 16.4665378,0.514580645 16.620881,0.530322581 C16.7749666,0.545806452 16.8865368,0.588645161 16.9561072,0.657806452 C17.0251623,0.727225806 17.0550518,0.82916129 17.0455181,0.964645161 C17.0359843,1.10012903 17.0032605,1.28412903 16.9465735,1.51716129 L14.1431445,12.1489032 Z" id="Fill-1"></path>
                            <path d="M26.094255,12.4603871 C26.094255,12.5233548 26.0751876,12.5783226 26.037568,12.6258065 C25.9996908,12.6727742 25.9368198,12.7125161 25.8486973,12.7437419 C25.7608325,12.7752258 25.6394708,12.7987097 25.4853853,12.8144516 C25.3312997,12.8301935 25.140883,12.8381935 24.9141351,12.8381935 C24.6814608,12.8381935 24.487952,12.8301935 24.3338665,12.8144516 C24.1795233,12.7987097 24.0584193,12.7752258 23.9702968,12.7437419 C23.8821743,12.7125161 23.8193033,12.6727742 23.7816838,12.6258065 C23.7438066,12.5783226 23.7249968,12.5233548 23.7249968,12.4603871 L23.7249968,7.65445161 C23.7249968,7.24516129 23.6951073,6.92412903 23.6355859,6.69135484 C23.5755493,6.45858065 23.4889728,6.25858065 23.3755988,6.0916129 C23.2624825,5.92490323 23.1161271,5.79587097 22.9367901,5.70451613 C22.757453,5.61341935 22.5482265,5.56774194 22.3091105,5.56774194 C22.0071235,5.56774194 21.7017868,5.67793548 21.3936158,5.89806452 C21.0851871,6.11845161 20.7643903,6.43948387 20.4309677,6.86116129 L20.4309677,12.4603871 C20.4309677,12.5233548 20.4119003,12.5783226 20.3740231,12.6258065 C20.3364035,12.6727742 20.2717289,12.7125161 20.1805143,12.7437419 C20.0892998,12.7752258 19.9684535,12.7987097 19.8172023,12.8144516 C19.6662088,12.8301935 19.4742461,12.8381935 19.2413141,12.8381935 C19.0086398,12.8381935 18.8166771,12.8301935 18.6656836,12.8144516 C18.5146901,12.7987097 18.3933284,12.7752258 18.3023715,12.7437419 C18.2108994,12.7125161 18.14674,12.6727742 18.1088628,12.6258065 C18.0709856,12.5783226 18.0521758,12.5233548 18.0521758,12.4603871 L18.0521758,0.908645161 C18.0521758,0.845677419 18.0709856,0.788903226 18.1088628,0.738580645 C18.14674,0.688258065 18.2108994,0.645677419 18.3023715,0.611096774 C18.3933284,0.576516129 18.5146901,0.549677419 18.6656836,0.53083871 C18.8166771,0.512 19.0086398,0.502451613 19.2413141,0.502451613 C19.4742461,0.502451613 19.6662088,0.512 19.8172023,0.53083871 C19.9684535,0.549677419 20.0892998,0.576516129 20.1805143,0.611096774 C20.2717289,0.645677419 20.3364035,0.688258065 20.3740231,0.738580645 C20.4119003,0.788903226 20.4309677,0.845677419 20.4309677,0.908645161 L20.4309677,4.69909677 C20.8396294,4.29625806 21.256794,3.99535484 21.681431,3.79716129 C22.1063258,3.59896774 22.5482265,3.49987097 23.0076488,3.49987097 C23.5801873,3.49987097 24.063315,3.59406452 24.4565165,3.78322581 C24.8497181,3.97187097 25.1676805,4.22993548 25.4098885,4.55741935 C25.6520965,4.88464516 25.8267955,5.26709677 25.9337278,5.70451613 C26.0409177,6.14219355 26.094255,6.67225806 26.094255,7.29548387 L26.094255,12.4603871 Z" id="Fill-3"></path>
                            <path d="M35.5911025,8.00374194 C35.5911025,8.29329032 35.5266855,8.50748387 35.3975938,8.64580645 C35.2685021,8.78412903 35.0909687,8.85354839 34.8644785,8.85354839 L29.7389446,8.85354839 C29.7389446,9.21225806 29.7814598,9.53793548 29.8664903,9.83058065 C29.9512631,10.1234839 30.0867965,10.3722581 30.2723175,10.5766452 C30.4580962,10.7812903 30.6969546,10.9369032 30.9896655,11.0442581 C31.2821188,11.1510968 31.6330628,11.2045161 32.0422397,11.2045161 C32.457343,11.2045161 32.8224587,11.1748387 33.1370715,11.1149677 C33.4516843,11.0550968 33.7240394,10.9887742 33.9536217,10.9165161 C34.183204,10.8442581 34.3733631,10.7781935 34.5246142,10.7185806 C34.6756077,10.6584516 34.7982578,10.6287742 34.892822,10.6287742 C34.9492513,10.6287742 34.9964045,10.6396129 35.0342818,10.6618065 C35.0719013,10.684 35.1033368,10.7229677 35.1285883,10.78 C35.1538398,10.8365161 35.1711035,10.9165161 35.1803796,11.0205161 C35.1899133,11.1245161 35.194809,11.2550968 35.194809,11.4125161 C35.194809,11.5508387 35.1914593,11.6690323 35.1852753,11.7663226 C35.1788336,11.864129 35.1695575,11.9472258 35.1566741,12.0166452 C35.144306,12.0860645 35.1252386,12.144129 35.1005025,12.1913548 C35.075251,12.2383226 35.0420118,12.2842581 35.0013002,12.328129 C34.960331,12.3722581 34.8487607,12.432129 34.666074,12.5074839 C34.483645,12.5830968 34.250713,12.6571613 33.9675358,12.7294194 C33.6843586,12.8019355 33.3604697,12.8646452 32.995354,12.9183226 C32.630496,12.9717419 32.2403865,12.9983226 31.8250255,12.9983226 C31.076242,12.9983226 30.420219,12.904129 29.8569565,12.7152258 C29.2939517,12.5265806 28.8231921,12.240129 28.4457083,11.856129 C28.0684822,11.472129 27.786851,10.9872258 27.6010723,10.4021935 C27.4155513,9.81664516 27.3225331,9.13045161 27.3225331,8.3436129 C27.3225331,7.59445161 27.4201893,6.9196129 27.615244,6.31832258 C27.8102988,5.71729032 28.093476,5.2076129 28.4647758,4.78877419 C28.8360755,4.36993548 29.28751,4.05070968 29.819337,3.83032258 C30.3509063,3.60993548 30.9502423,3.49974194 31.617345,3.49974194 C32.3220673,3.49974194 32.924753,3.60374194 33.4248868,3.81148387 C33.9252782,4.01896774 34.3357435,4.30722581 34.656798,4.67522581 C34.9775948,5.04374194 35.2136188,5.4796129 35.3646123,5.98309677 C35.5156058,6.48683871 35.5911025,7.03445161 35.5911025,7.62593548 L35.5911025,8.00374194 Z M33.288065,7.32374194 C33.3068748,6.65690323 33.173145,6.13277419 32.8868758,5.75187097 C32.6006065,5.37096774 32.158448,5.18077419 31.560658,5.18077419 C31.258671,5.18077419 30.9961072,5.23729032 30.7724513,5.35058065 C30.5493107,5.46387097 30.363532,5.6163871 30.2156305,5.8083871 C30.0677291,6.0003871 29.9546128,6.22722581 29.8757663,6.48812903 C29.7971775,6.74954839 29.7515703,7.028 29.7389446,7.32374194 L33.288065,7.32374194 Z" id="Fill-5"></path>
                            <path d="M44.9748595,12.4603871 C44.9748595,12.5233548 44.9560497,12.5783226 44.9181725,12.6258065 C44.880553,12.6727742 44.8174243,12.7125161 44.7295595,12.7437419 C44.6411793,12.7752258 44.520333,12.7987097 44.3662475,12.8144516 C44.2119043,12.8301935 44.0214875,12.8381935 43.7949973,12.8381935 C43.562323,12.8381935 43.3685566,12.8301935 43.214471,12.8144516 C43.0601278,12.7987097 42.9392815,12.7752258 42.851159,12.7437419 C42.7630365,12.7125161 42.7001655,12.6727742 42.6620306,12.6258065 C42.6246687,12.5783226 42.605859,12.5233548 42.605859,12.4603871 L42.605859,7.65445161 C42.605859,7.24516129 42.5759695,6.92412903 42.5159328,6.69135484 C42.4561538,6.45858065 42.369835,6.25858065 42.256461,6.0916129 C42.1430871,5.92490323 41.9967316,5.79587097 41.8173946,5.70451613 C41.6383152,5.61341935 41.4288311,5.56774194 41.1899727,5.56774194 C40.8877281,5.56774194 40.5823914,5.67793548 40.2742203,5.89806452 C39.9660493,6.11845161 39.6449948,6.43948387 39.3115723,6.86116129 L39.3115723,12.4603871 C39.3115723,12.5233548 39.2925048,12.5783226 39.2548853,12.6258065 C39.2170081,12.6727742 39.1523334,12.7125161 39.0616342,12.7437419 C38.9699044,12.7752258 38.849058,12.7987097 38.6980645,12.8144516 C38.547071,12.8301935 38.3551083,12.8381935 38.1221763,12.8381935 C37.889502,12.8381935 37.6975393,12.8301935 37.5462881,12.8144516 C37.3952946,12.7987097 37.2741906,12.7752258 37.1829761,12.7437419 C37.0917616,12.7125161 37.0270869,12.6727742 36.9894673,12.6258065 C36.9515901,12.5783226 36.9327803,12.5233548 36.9327803,12.4603871 L36.9327803,4.03793548 C36.9327803,3.97522581 36.9487558,3.92 36.9801913,3.87277419 C37.0116268,3.82554839 37.0683138,3.78632258 37.1497369,3.75483871 C37.2316753,3.72335484 37.3370616,3.6996129 37.4661533,3.68412903 C37.5949874,3.6683871 37.7570606,3.6603871 37.952373,3.6603871 C38.1536118,3.6603871 38.3205807,3.6683871 38.4522491,3.68412903 C38.5846906,3.6996129 38.6872425,3.72335484 38.7593895,3.75483871 C38.8315366,3.78632258 38.8835856,3.82554839 38.9150211,3.87277419 C38.9464566,3.92 38.9621743,3.97522581 38.9621743,4.03793548 L38.9621743,5.01058065 C39.4280383,4.50709677 39.9016322,4.12929032 40.3826986,3.87741935 C40.8640226,3.62580645 41.3659601,3.49987097 41.888511,3.49987097 C42.4607918,3.49987097 42.9436619,3.59406452 43.3373787,3.78322581 C43.7303226,3.97187097 44.048285,4.22864516 44.290493,4.55251613 C44.5329587,4.87690323 44.7074,5.256 44.8143323,5.69058065 C44.9215222,6.12490323 44.9748595,6.64748387 44.9748595,7.25780645 L44.9748595,12.4603871 Z" id="Fill-7"></path>
                            <path d="M52.1686695,12.441471 C52.1686695,12.5044387 52.1483138,12.5612129 52.1076022,12.6112774 C52.066633,12.6621161 51.9988663,12.7026323 51.9045597,12.7341161 C51.8097379,12.7658581 51.6842535,12.7911484 51.5268183,12.8099871 C51.3693831,12.8285677 51.1678866,12.8381161 50.9225866,12.8381161 C50.6834706,12.8381161 50.4837778,12.8285677 50.3235083,12.8099871 C50.1627234,12.7911484 50.0354353,12.7658581 49.9408711,12.7341161 C49.8465646,12.7026323 49.7790555,12.6621161 49.7380863,12.6112774 C49.6971171,12.5612129 49.6767613,12.5044387 49.6767613,12.441471 L49.6767613,0.903148387 C49.6767613,0.84043871 49.6971171,0.783664516 49.7380863,0.733083871 C49.7790555,0.683019355 49.8481106,0.641987097 49.9457668,0.610503226 C50.0431654,0.579019355 50.1707111,0.553987097 50.3278886,0.534890323 C50.4853238,0.516309677 50.6834706,0.50676129 50.9225866,0.50676129 C51.1678866,0.50676129 51.3693831,0.516309677 51.5268183,0.534890323 C51.6842535,0.553987097 51.8097379,0.579019355 51.9045597,0.610503226 C51.9988663,0.641987097 52.066633,0.683019355 52.1076022,0.733083871 C52.1483138,0.783664516 52.1686695,0.84043871 52.1686695,0.903148387 L52.1686695,12.441471 Z" id="Fill-9"></path>
                            <path d="M69.9155602,12.1489032 C69.877683,12.300129 69.825634,12.4214194 69.7599286,12.5122581 C69.6937079,12.6036129 69.5945057,12.6727742 69.462322,12.7202581 C69.3301382,12.7672258 69.160335,12.7987097 68.9526545,12.8144516 C68.744974,12.8301935 68.4808642,12.8381935 68.1600674,12.8381935 C67.8011357,12.8381935 67.5133204,12.8301935 67.2961062,12.8144516 C67.0791497,12.7987097 66.9075427,12.7672258 66.7818007,12.7202581 C66.655801,12.6727742 66.5645865,12.6036129 66.5078995,12.5122581 C66.4514702,12.4214194 66.4076666,12.300129 66.3759734,12.1489032 L64.4220762,4.40619355 L64.4030088,4.40619355 L62.5532095,12.1489032 C62.5217739,12.2936774 62.4777127,12.4116129 62.420768,12.5027097 C62.3640811,12.5940645 62.2746702,12.6650323 62.1520202,12.7150968 C62.0293702,12.7659355 61.8626589,12.7987097 61.6518864,12.8144516 C61.4408563,12.8301935 61.162317,12.8381935 60.8162688,12.8381935 C60.4514107,12.8381935 60.1605034,12.8301935 59.9432892,12.8144516 C59.726075,12.7987097 59.5544681,12.7672258 59.428726,12.7202581 C59.302984,12.6727742 59.2115118,12.6036129 59.1550825,12.5122581 C59.0983955,12.4214194 59.0512423,12.300129 59.013365,12.1489032 L56.2382796,1.48851613 C56.1818503,1.26193548 56.1504147,1.08412903 56.1442307,0.955096774 C56.137789,0.826322581 56.1738625,0.727225806 56.252709,0.657806452 C56.3312978,0.588645161 56.4601318,0.545806452 56.6397265,0.530322581 C56.8190635,0.514580645 57.0692592,0.50683871 57.390056,0.50683871 C57.6856013,0.50683871 57.9200793,0.511483871 58.0929746,0.520774194 C58.2663852,0.530322581 58.3967653,0.552516129 58.4848878,0.587096774 C58.5727526,0.621419355 58.6330469,0.671741935 58.6642248,0.738064516 C58.6956603,0.804129032 58.7209117,0.897032258 58.7397215,1.01651613 L60.8822318,10.3736774 L60.8917655,10.3736774 L63.1193063,1.08283871 C63.1445578,0.963096774 63.1777969,0.865290323 63.2185085,0.789935484 C63.2594777,0.714322581 63.3287904,0.656258065 63.426189,0.615225806 C63.5235875,0.574193548 63.6573173,0.545806452 63.8273782,0.530322581 C63.9971815,0.514580645 64.2236718,0.50683871 64.506849,0.50683871 C64.8090937,0.50683871 65.049498,0.513032258 65.2290927,0.525419355 C65.4084297,0.538322581 65.5467975,0.564903226 65.6444537,0.605677419 C65.7418522,0.646967742 65.812711,0.705032258 65.8567722,0.780645161 C65.9008335,0.856 65.935361,0.956903226 65.9603548,1.08283871 L68.26365,10.3736774 L68.2824597,10.3736774 L70.4252277,1.04490323 C70.4442951,0.944516129 70.4690313,0.857548387 70.5007244,0.785032258 C70.5324176,0.713032258 70.591939,0.656258065 70.6800614,0.615225806 C70.7681839,0.574193548 70.893926,0.545806452 71.0575452,0.530322581 C71.2209068,0.514580645 71.4510044,0.50683871 71.7465497,0.50683871 C72.0235429,0.50683871 72.2392111,0.514580645 72.3932967,0.530322581 C72.5473822,0.545806452 72.6589525,0.588645161 72.7282652,0.657806452 C72.7975779,0.727225806 72.8274674,0.82916129 72.8179337,0.964645161 C72.8086576,1.10012903 72.7756761,1.28412903 72.7189891,1.51716129 L69.9155602,12.1489032 Z" id="Fill-11"></path>
                            <path d="M81.422322,8.16425806 C81.422322,8.88167742 81.3280155,9.53664516 81.1391447,10.128129 C80.950274,10.7196129 80.6640048,11.2298065 80.2800793,11.6579355 C79.8964115,12.0860645 79.4150875,12.4166452 78.8361072,12.6491613 C78.257127,12.8819355 77.5807482,12.9983226 76.8067132,12.9983226 C76.0579297,12.9983226 75.4065448,12.8948387 74.852816,12.6870968 C74.2990873,12.4793548 73.839665,12.1774194 73.4745493,11.7807742 C73.1096913,11.384129 72.8391398,10.8963871 72.6631525,10.3170323 C72.4869075,9.73793548 72.3985273,9.07677419 72.3985273,8.33406452 C72.3985273,7.61664516 72.4948952,6.96064516 72.6868579,6.36554839 C72.878563,5.77070968 73.1663783,5.26077419 73.5503038,4.836 C73.9342292,4.41096774 74.4140072,4.08219355 74.9896378,3.84916129 C75.565526,3.6163871 76.2403588,3.49974194 77.0143937,3.49974194 C77.7693613,3.49974194 78.4238383,3.60219355 78.977567,3.80683871 C79.5312958,4.01122581 79.989172,4.31187097 80.3511957,4.70825806 C80.712704,5.10516129 80.9819672,5.59290323 81.1582122,6.172 C81.3341995,6.75109677 81.422322,7.41535484 81.422322,8.16425806 M78.977567,8.25870968 C78.977567,7.84322581 78.9445855,7.46077419 78.8786225,7.1116129 C78.8124018,6.76219355 78.7010891,6.45845161 78.5433963,6.2003871 C78.3862187,5.94232258 78.1767346,5.74077419 77.9157168,5.596 C77.6544413,5.45122581 77.3259145,5.37896774 76.9296209,5.37896774 C76.577131,5.37896774 76.2687022,5.44348387 76.0045924,5.57251613 C75.740225,5.70154839 75.5227531,5.89019355 75.3529498,6.13896774 C75.1831465,6.38774194 75.0556008,6.68658065 74.970828,7.036 C74.8857975,7.38541935 74.84354,7.78335484 74.84354,8.23032258 C74.84354,8.64580645 74.8780675,9.02825806 74.9471225,9.37767742 C75.0164353,9.72709677 75.1280055,10.0305806 75.2823487,10.2886452 C75.4361766,10.5469677 75.6456608,10.7467097 75.9097706,10.8883871 C76.1743957,11.0300645 76.5013765,11.1005161 76.8917437,11.1005161 C77.2504177,11.1005161 77.5619385,11.0362581 77.8260483,10.9072258 C78.0901581,10.7781935 78.3073723,10.5905806 78.4771756,10.3451613 C78.6472365,10.0997419 78.7729785,9.80245161 78.854917,9.45277419 C78.9365978,9.10387097 78.977567,8.70567742 78.977567,8.25870968" id="Fill-13"></path>
                            <path d="M88.0970338,4.82178065 C88.0970338,5.04836129 88.0908498,5.23416774 88.0779664,5.37894194 C88.0655983,5.52371613 88.0470462,5.63700645 88.0215371,5.7188129 C87.9962856,5.80061935 87.9633041,5.85713548 87.9223349,5.88861935 C87.8816233,5.92036129 87.8295744,5.93584516 87.7667033,5.93584516 C87.7162004,5.93584516 87.6597711,5.92500645 87.5969001,5.9028129 C87.5337714,5.88061935 87.4631703,5.85713548 87.3843239,5.83184516 C87.3059928,5.8068129 87.2191586,5.78332903 87.1251098,5.76139355 C87.0302879,5.7392 86.9267053,5.72810323 86.8133314,5.72810323 C86.6811476,5.72810323 86.5489639,5.7552 86.4167801,5.80836129 C86.2848541,5.86203871 86.1477746,5.94539355 86.0063149,6.05868387 C85.8648551,6.17197419 85.7169536,6.32294194 85.5626104,6.51184516 C85.4085249,6.70074839 85.2433596,6.93352258 85.0671146,7.21068387 L85.0671146,12.4604903 C85.0671146,12.5234581 85.0483048,12.5784258 85.0106853,12.6256516 C84.9728081,12.6728774 84.9081334,12.7123613 84.8171766,12.7435871 C84.7257044,12.775071 84.6046004,12.7988129 84.4536069,12.8145548 C84.3026133,12.8300387 84.1106506,12.8380387 83.8777186,12.8380387 C83.6450443,12.8380387 83.4533393,12.8300387 83.3023458,12.8145548 C83.1510946,12.7988129 83.0299906,12.775071 82.9385184,12.7435871 C82.8475616,12.7123613 82.7828869,12.6728774 82.7450097,12.6256516 C82.7073901,12.5784258 82.6885803,12.5234581 82.6885803,12.4604903 L82.6885803,4.03803871 C82.6885803,3.97507097 82.7042981,3.92010323 82.7357336,3.87287742 C82.7671691,3.82565161 82.8238561,3.78642581 82.9057946,3.75468387 C82.9874753,3.72345806 83.0928616,3.69971613 83.2219533,3.68397419 C83.3507874,3.66823226 83.5128606,3.66023226 83.7079154,3.66023226 C83.9094118,3.66023226 84.0761231,3.66823226 84.2080492,3.68397419 C84.3404906,3.69971613 84.4425271,3.72345806 84.5151895,3.75468387 C84.5873366,3.78642581 84.6393856,3.82565161 84.6708211,3.87287742 C84.7019989,3.92010323 84.7179743,3.97507097 84.7179743,4.03803871 L84.7179743,5.08603871 C84.9380229,4.77145806 85.1459611,4.51184516 85.3410158,4.3072 C85.5360706,4.10255484 85.7215916,3.94023226 85.8978366,3.82100645 C86.0738239,3.70152258 86.2503265,3.61790968 86.4263139,3.57068387 C86.6025588,3.52345806 86.7788038,3.49971613 86.9547911,3.49971613 C87.0367296,3.49971613 87.1251098,3.50436129 87.2191586,3.51390968 C87.3137228,3.52345806 87.4111214,3.5392 87.5116119,3.56139355 C87.6123601,3.58332903 87.7007403,3.60836129 87.7759794,3.63674839 C87.8517338,3.66513548 87.9066171,3.6948129 87.9414023,3.72655484 C87.9759298,3.75803871 88.0011813,3.79261935 88.0166414,3.83029677 C88.0326168,3.86823226 88.0470462,3.92010323 88.0591566,3.98616774 C88.0717824,4.05223226 88.0810584,4.15132903 88.0877578,4.28345806 C88.0936842,4.4155871 88.0970338,4.5952 88.0970338,4.82178065" id="Fill-15"></path>
                            <path d="M97.0950359,12.4697032 C97.0950359,12.532929 97.0777722,12.5878968 97.0432446,12.6351226 C97.0084594,12.6820903 96.9455884,12.7202839 96.8543739,12.7484129 C96.7629017,12.7765419 96.6387057,12.7987355 96.4815282,12.8144774 C96.3243506,12.8299613 96.1197622,12.8379613 95.8677627,12.8379613 C95.609837,12.8379613 95.4008681,12.8317677 95.2403409,12.8191226 C95.0798137,12.8064774 94.9476299,12.7863484 94.8437897,12.7577032 C94.7399495,12.7295742 94.659557,12.6900903 94.6031277,12.6397677 C94.5464407,12.5897032 94.4959378,12.5233806 94.4518765,12.4415742 L91.6487052,8.00363871 L91.6487052,12.4604129 C91.6487052,12.5233806 91.6296378,12.5783484 91.5917606,12.6255742 C91.5543987,12.6728 91.489724,12.7122839 91.3985095,12.7435097 C91.307295,12.7752516 91.186191,12.7987355 91.0351975,12.8144774 C90.8844616,12.8299613 90.6922412,12.8379613 90.4593093,12.8379613 C90.226635,12.8379613 90.0349299,12.8299613 89.8836787,12.8144774 C89.7326852,12.7987355 89.6115812,12.7752516 89.5203667,12.7435097 C89.4288945,12.7122839 89.3644775,12.6728 89.3266003,12.6255742 C89.2889807,12.5783484 89.2704286,12.5233806 89.2704286,12.4604129 L89.2704286,0.908670968 C89.2704286,0.845703226 89.2889807,0.788929032 89.3266003,0.738348387 C89.3644775,0.688283871 89.4288945,0.645703226 89.5203667,0.611122581 C89.6115812,0.576541935 89.7326852,0.549703226 89.8836787,0.530864516 C90.0349299,0.512025806 90.226635,0.502477419 90.4593093,0.502477419 C90.6922412,0.502477419 90.8844616,0.512025806 91.0351975,0.530864516 C91.186191,0.549703226 91.307295,0.576541935 91.3985095,0.611122581 C91.489724,0.645703226 91.5543987,0.688283871 91.5917606,0.738348387 C91.6296378,0.788929032 91.6487052,0.845703226 91.6487052,0.908670968 L91.6487052,7.4371871 L94.1406134,4.0851871 C94.1908587,4.00957419 94.2478034,3.94350968 94.3104167,3.88699355 C94.3732877,3.83021935 94.4567722,3.78634839 94.5606125,3.75460645 C94.6644527,3.72338065 94.7932868,3.69963871 94.9476299,3.68389677 C95.1017155,3.6684129 95.2985739,3.6604129 95.5374322,3.6604129 C95.7703642,3.6604129 95.966965,3.6684129 96.1274922,3.68389677 C96.2880194,3.69963871 96.4168535,3.72338065 96.5145097,3.75460645 C96.6119082,3.78634839 96.6799326,3.82557419 96.7172945,3.8728 C96.7551717,3.92002581 96.7739815,3.97834839 96.7739815,4.04750968 C96.7739815,4.14170323 96.750276,4.24260645 96.7031227,4.34970323 C96.6562271,4.4568 96.5853684,4.57009032 96.4908042,4.68957419 L94.0272395,7.48467097 L96.8778217,11.8939613 C96.9533185,12.0198968 97.0084594,12.1282839 97.0432446,12.2196387 C97.0777722,12.3109935 97.0950359,12.3943484 97.0950359,12.4697032" id="Fill-17"></path>
                        </g>
                        <path d="M6.97610624,16.516129 L15.6984292,16.516129 C16.0648333,16.516129 16.3619246,16.2227097 16.3619246,15.8606452 L16.3619246,15.1070968 C16.3619246,14.7450323 16.0648333,14.4516129 15.6984292,14.4516129 L6.97610624,14.4516129 C6.6097022,14.4516129 6.31286854,14.7450323 6.31286854,15.1070968 L6.31286854,15.8606452 C6.31286854,16.2227097 6.6097022,16.516129 6.97610624,16.516129 M9.03745107,12.9032258 L17.759774,12.9032258 C18.1261781,12.9032258 18.4232694,12.6098065 18.4232694,12.2477419 L18.4232694,11.4941935 C18.4232694,11.132129 18.1261781,10.8387097 17.759774,10.8387097 L9.03745107,10.8387097 C8.67104702,10.8387097 8.37421337,11.132129 8.37421337,11.4941935 L8.37421337,12.2477419 C8.37421337,12.6098065 8.67104702,12.9032258 9.03745107,12.9032258 M6.97610624,9.29032258 L15.6984292,9.29032258 C16.0648333,9.29032258 16.3619246,8.99690323 16.3619246,8.63483871 L16.3619246,7.88129032 C16.3619246,7.51922581 16.0648333,7.22580645 15.6984292,7.22580645 L6.97610624,7.22580645 C6.6097022,7.22580645 6.31286854,7.51922581 6.31286854,7.88129032 L6.31286854,8.63483871 C6.31286854,8.99690323 6.6097022,9.29032258 6.97610624,9.29032258 M11.9815668,0 C5.36439225,0 0,5.3723871 0,12 C0,18.6273548 5.36439225,24 11.9815668,24 C18.5987414,24 23.9631336,18.6273548 23.9631336,12 C23.9631336,5.3723871 18.5987414,0 11.9815668,0 M11.9815668,21.9357419 C6.50276993,21.9357419 2.06134483,17.4872258 2.06134483,12 C2.06134483,6.51277419 6.50276993,2.06451613 11.9815668,2.06451613 C17.4603637,2.06451613 21.9017888,6.51277419 21.9017888,12 C21.9017888,17.4872258 17.4603637,21.9357419 11.9815668,21.9357419" id="Icon"></path>
                        <g id="Copyright" transform="translate(126.515039, 6.967742)">
                            <path d="M1.61872256,0.83643871 C1.55533621,0.801083871 1.45458798,0.783535484 1.3154472,0.783535484 L1.10158268,0.783535484 L1.10158268,1.29889032 L1.32781527,1.29889032 C1.43371686,1.29889032 1.51359397,1.28856774 1.5666736,1.26714839 C1.66432982,1.22843871 1.71328675,1.15437419 1.71328675,1.04495484 C1.71328675,0.941212903 1.68159358,0.871793548 1.61872256,0.83643871 L1.61872256,0.83643871 Z M1.34817105,0.612180645 C1.52441603,0.612180645 1.65402309,0.629212903 1.73596155,0.663535484 C1.88309004,0.724696774 1.95678311,0.844954839 1.95678311,1.02405161 C1.95678311,1.15127742 1.91040285,1.24495484 1.81764234,1.30508387 C1.7686854,1.33682581 1.70014568,1.35979355 1.61253853,1.3739871 C1.72359348,1.39153548 1.8050166,1.43824516 1.85655022,1.5136 C1.90782617,1.58869677 1.93359298,1.66224516 1.93359298,1.7339871 L1.93359298,1.8379871 C1.93359298,1.87101935 1.93488132,1.90611613 1.93694267,1.94379355 C1.93951935,1.98147097 1.94364204,2.0059871 1.94956841,2.01785806 L1.95832912,2.03540645 L1.72385115,2.03540645 C1.72230514,2.03076129 1.72127447,2.02611613 1.72024379,2.02147097 C1.71895545,2.01682581 1.71792478,2.01140645 1.71663644,2.00572903 L1.71148308,1.95979355 L1.71148308,1.84701935 C1.71148308,1.68289032 1.6669065,1.57424516 1.57775333,1.52134194 C1.52441603,1.49089032 1.43139785,1.47566452 1.29869878,1.47566452 L1.10158268,1.47566452 L1.10158268,2.03540645 L0.850871612,2.03540645 L0.850871612,0.612180645 L1.34817105,0.612180645 Z M0.586504138,0.539664516 C0.370320599,0.757470968 0.262357663,1.02069677 0.262357663,1.32908387 C0.262357663,1.63979355 0.369547594,1.90482581 0.584700461,2.12392258 C0.801141668,2.34276129 1.06370547,2.45218065 1.37264952,2.45218065 C1.68185125,2.45218065 1.94493038,2.34276129 2.16085625,2.12392258 C2.37729746,1.90482581 2.48526039,1.63979355 2.48526039,1.32908387 C2.48526039,1.02069677 2.37729746,0.757470968 2.16085625,0.539664516 C1.94364204,0.320567742 1.68107824,0.211148387 1.37264952,0.211148387 C1.06602448,0.211148387 0.803718349,0.320567742 0.586504138,0.539664516 L0.586504138,0.539664516 Z M2.2896903,2.24727742 C2.03717556,2.50172903 1.73132352,2.62895484 1.37264952,2.62895484 C1.01423319,2.62895484 0.709411823,2.50172903 0.457670086,2.24727742 C0.207216689,1.99437419 0.0822476587,1.68753548 0.0822476587,1.32727742 C0.0822476587,0.970632258 0.208505029,0.6656 0.461535107,0.41243871 C0.71250384,0.160567742 1.0165522,0.0346322581 1.37264952,0.0346322581 C1.73132352,0.0346322581 2.03717556,0.160567742 2.2896903,0.41243871 C2.54272038,0.664567742 2.66872008,0.9696 2.66872008,1.32727742 C2.66872008,1.68650323 2.54272038,1.99308387 2.2896903,2.24727742 L2.2896903,2.24727742 Z" id="Fill-21"></path>
                        </g>
                    </g>
                </g>
            </g>
        </g>
    </g>
</svg>
